<svg width="33" height="48" viewBox="0 0 33 48" fill="none" xmlns="http://www.w3.org/2000/svg">
<path d="M29.1436 3.8125C30.3276 3.8125 31.2879 4.76037 31.2881 5.92969C31.2881 7.09913 30.3277 8.04785 29.1436 8.04785C28.5929 8.04774 28.0925 7.84005 27.7129 7.50293L20.4473 9.81152C20.6842 10.3372 20.8174 10.9188 20.8174 11.5312C20.8174 12.9896 20.0699 14.2745 18.9336 15.0361C16.4976 17.9478 14.8419 21.8663 20.5059 26.9502C20.5381 27.0027 20.5789 27.0508 20.624 27.0938C21.2336 27.6223 21.7014 28.1764 22.0449 28.7861C22.9046 30.3116 23.114 32.0775 22.6318 33.7559C22.1495 35.4358 21.0329 36.8293 19.4893 37.6797C16.2971 39.4295 12.2585 38.3009 10.4775 35.1562C8.96937 32.4858 9.56419 29.0857 11.8916 27.0664C11.9109 27.0489 11.9308 27.0312 11.9453 27.0137C14.5697 24.7175 15.8652 22.5198 15.9023 20.2969C15.933 18.4958 15.1586 16.7249 13.4648 14.7471C13.4503 14.6374 13.402 14.531 13.3232 14.4482L13.1084 14.2246C12.9408 14.0575 12.7966 13.9146 12.6982 13.7412V13.7393C12.3556 13.1324 12.1873 12.4752 12.1758 11.8242H6.92188C6.77742 12.855 5.88325 13.6494 4.7998 13.6494C3.61591 13.6492 2.65625 12.7005 2.65625 11.5312C2.6564 10.3621 3.616 9.4143 4.7998 9.41406C5.88991 9.41406 6.78878 10.2178 6.9248 11.2578H12.2061C12.2371 11.0052 12.2909 10.7559 12.3682 10.5137C12.8294 8.66675 14.5168 7.29702 16.5293 7.29688C18.0693 7.29688 19.4188 8.0996 20.1748 9.30371L27.3164 7.03418C27.1167 6.71247 27 6.3347 27 5.92969C27.0002 4.76052 27.9598 3.81274 29.1436 3.8125ZM26.1279 13.1406C27.0094 13.1408 27.7236 13.8472 27.7236 14.7178C27.7234 15.5882 27.0092 16.2937 26.1279 16.2939C25.2465 16.2939 24.5315 15.5883 24.5312 14.7178C24.5312 13.8471 25.2463 13.1406 26.1279 13.1406ZM15.3701 0C16.2514 0.000217665 16.9656 0.705777 16.9658 1.57617C16.9658 2.44674 16.2515 3.1531 15.3701 3.15332C14.4885 3.15332 13.7734 2.44687 13.7734 1.57617C13.7736 0.705642 14.4886 0 15.3701 0Z" fill="url(#paint0_linear_6246_2688)"/>
<path d="M25.6836 14.1797C26.0438 14.1797 26.3359 14.4684 26.3359 14.8242C26.3358 15.1798 26.0437 15.4677 25.6836 15.4678C25.3235 15.4678 25.0314 15.1799 25.0312 14.8242C25.0312 14.4684 25.3233 14.1797 25.6836 14.1797ZM15.5195 8.25C16.6002 8.25009 17.4765 9.11531 17.4766 10.1826C17.4766 11.2499 16.6002 12.1151 15.5195 12.1152C14.4388 12.1152 13.5625 11.25 13.5625 10.1826C13.5625 9.11526 14.4388 8.25 15.5195 8.25ZM3.9082 10.3203C4.34029 10.3206 4.69043 10.667 4.69043 11.0938C4.69022 11.5204 4.34017 11.866 3.9082 11.8662C3.47603 11.8662 3.12521 11.5205 3.125 11.0938C3.125 10.6668 3.4759 10.3203 3.9082 10.3203ZM29.6006 4.64844C30.1049 4.64844 30.5137 5.05267 30.5137 5.55078C30.5134 6.04869 30.1048 6.45215 29.6006 6.45215C29.0964 6.45209 28.6877 6.04865 28.6875 5.55078C28.6875 5.05271 29.0963 4.6485 29.6006 4.64844ZM15.2539 0.523438C15.6141 0.523467 15.9062 0.812196 15.9062 1.16797C15.9061 1.5236 15.614 1.81149 15.2539 1.81152C14.8938 1.81152 14.6017 1.52361 14.6016 1.16797C14.6016 0.812178 14.8937 0.523438 15.2539 0.523438Z" fill="white" fill-opacity="0.6"/>
<path d="M29.1241 23.0255L28.2774 21.9194L27.0794 20.6813C25.434 19.1401 23.5375 18.0128 21.5209 17.2969C21.4968 18.1591 21.2684 18.9713 20.8825 19.6885C22.3796 20.2555 23.7993 21.1046 25.0627 22.2556C30.2193 26.9506 31.1796 35.0261 26.6534 40.4674C23.7686 43.9349 20.8571 40.975 17.569 40.8787C13.8281 40.7693 8.41513 44.0509 5.43285 40.5702C2.03388 36.603 1.5838 30.4432 4.03053 25.9182C5.64253 22.9372 8.23216 20.8316 11.173 19.7241C10.7804 19.0056 10.5453 18.1908 10.5173 17.3246C8.69827 17.9746 6.97274 18.9542 5.43686 20.2621C5.06558 20.5785 4.73436 20.949 4.36709 21.2707L3.18246 22.6867C-0.955072 28.124 -1.08462 35.858 2.94873 41.385L3.86759 42.5637L4.96007 43.6923L6.10998 44.6521C11.762 49.0347 19.973 49.1322 25.7025 44.813L26.7135 44.0074L26.8978 43.8334C27.1649 43.426 27.6123 43.1267 27.9502 42.7707C32.9305 37.5219 33.4126 28.8083 29.1255 23.0255H29.1241Z" fill="url(#paint1_linear_6246_2688)"/>
<defs>
<linearGradient id="paint0_linear_6246_2688" x1="16.9722" y1="0" x2="16.9722" y2="38.5036" gradientUnits="userSpaceOnUse">
<stop stop-color="#8DBAFE"/>
<stop offset="0.305408" stop-color="#B5C9FE"/>
<stop offset="0.714329" stop-color="#D674EB"/>
<stop offset="1" stop-color="#7D40A7"/>
</linearGradient>
<linearGradient id="paint1_linear_6246_2688" x1="16.0204" y1="17.2969" x2="16.0204" y2="47.9964" gradientUnits="userSpaceOnUse">
<stop stop-color="#B186F9"/>
<stop offset="0.343992" stop-color="#D674EB"/>
<stop offset="1" stop-color="#7D40A7"/>
</linearGradient>
</defs>
</svg>
