<svg width="241" height="48" viewBox="0 0 241 48" fill="none" xmlns="http://www.w3.org/2000/svg">
<path d="M120.457 27.5154C120.457 29.6164 121.114 30.9922 122.188 31.8723C123.302 32.7848 125.045 33.3141 127.49 33.3142C129.977 33.314 131.717 32.783 132.819 31.8741C133.814 31.053 134.441 29.795 134.516 27.903L134.524 27.5154V20.9132H137.747V27.5905C137.747 30.4731 136.832 32.7728 134.957 34.3209C133.236 35.7417 130.857 36.401 128.056 36.478L127.49 36.4855C124.466 36.4855 121.88 35.8352 120.034 34.3238C118.148 32.7791 117.209 30.481 117.209 27.5905V17.3342H120.457V27.5154Z" fill="white"/>
<path fill-rule="evenodd" clip-rule="evenodd" d="M157.349 17.0312C159.254 17.0314 161.639 17.2824 163.569 18.1719C164.54 18.6194 165.42 19.2396 166.058 20.0925C166.7 20.9527 167.075 22.0221 167.075 23.3192V23.9688L166.431 23.8805L164.303 23.5859L163.814 23.5177V23.0247C163.814 22.4671 163.747 22.2746 163.658 22.1413C163.597 22.051 163.516 21.9672 163.386 21.8564L162.821 21.4053C162.045 20.797 160.59 20.2734 157.903 20.2103L157.349 20.2036C154.8 20.2036 153.07 20.6548 152.019 21.2684C151.007 21.86 150.668 22.5625 150.668 23.2298C150.668 23.6205 150.764 23.8645 150.884 24.0304C151.002 24.1924 151.196 24.3557 151.519 24.4921L151.588 24.5206H151.589L151.599 24.5245L151.604 24.5273C152.064 24.7161 153.035 24.8723 154.275 24.9813C155.461 25.0854 156.732 25.1352 157.694 25.1731H157.693C158.77 25.2107 160.093 25.2551 161.339 25.3517C162.558 25.4462 163.808 25.597 164.709 25.8761C166.608 26.4404 167.757 27.9567 167.894 29.7694L167.907 30.136C167.907 31.572 167.455 33.26 165.759 34.5375C164.234 35.6855 161.841 36.393 158.237 36.477L157.5 36.4855C153.365 36.4855 150.802 35.5192 149.283 34.0284C147.768 32.5408 147.455 30.8813 147.455 29.6335V28.9212L150.756 29.6858V30.136C150.756 30.5412 150.794 30.758 150.893 30.9585C151 31.1754 151.206 31.4306 151.66 31.8457C152.459 32.575 154.105 33.3131 157.5 33.3132C160.895 33.313 162.687 32.7517 163.604 32.1268C164.325 31.6349 164.573 31.0566 164.624 30.4484L164.634 30.1863C164.634 29.8124 164.534 29.5607 164.39 29.3808V29.3818C164.241 29.1959 163.972 28.9957 163.487 28.8556L163.455 28.8461C162.852 28.6745 161.86 28.556 160.68 28.4719C159.506 28.3883 158.264 28.3446 157.199 28.2933V28.2923C156.203 28.2545 154.859 28.1972 153.577 28.0711C152.336 27.9488 150.998 27.7512 150.104 27.3749C148.54 26.7176 147.527 25.3899 147.406 23.6363L147.395 23.2801C147.395 21.4528 148.353 19.8376 150.088 18.7286C151.79 17.6403 154.234 17.0313 157.349 17.0312Z" fill="white"/>
<path d="M49.3355 36.1835H46.0625V17.3342H49.3355V36.1835Z" fill="white"/>
<path d="M63.0701 17.4862L77.6604 31.084V17.3342H80.9088V36.1835H78.3205L63.0387 21.884V36.1835H59.8161V17.3342H62.9067L63.0701 17.4862Z" fill="white"/>
<path d="M108.127 20.5066H94.5416V25.7022H106.362V28.8244H94.5416V36.1835H91.2942V17.3342H108.127V20.5066Z" fill="white"/>
<path d="M181.056 36.1835H177.783V17.3342H181.056V36.1835Z" fill="white"/>
<path d="M193.233 17.5964L202.375 31.972L211.542 17.5955L211.709 17.3342H215.557L203.693 35.9224L203.526 36.1835H201.199L201.032 35.9224L189.168 17.3342H193.066L193.233 17.5964Z" fill="white"/>
<path d="M240.743 20.5066H226.831V25.1475H238.223V28.2696H226.831V33.0112H240.995V36.1835H223.582V17.3342H240.743V20.5066Z" fill="white"/>
<path d="M137.779 19.8998H134.466L136.122 17.0312L137.779 19.8998Z" fill="white"/>
<path d="M29.1436 3.8125C30.3276 3.8125 31.2879 4.76037 31.2881 5.92969C31.2881 7.09913 30.3277 8.04785 29.1436 8.04785C28.5929 8.04774 28.0925 7.84005 27.7129 7.50293L20.4473 9.81152C20.6842 10.3372 20.8174 10.9188 20.8174 11.5312C20.8174 12.9896 20.0699 14.2745 18.9336 15.0361C16.4976 17.9478 14.8419 21.8663 20.5059 26.9502C20.5381 27.0027 20.5789 27.0508 20.624 27.0938C21.2336 27.6223 21.7014 28.1764 22.0449 28.7861C22.9046 30.3116 23.114 32.0775 22.6318 33.7559C22.1495 35.4358 21.0329 36.8293 19.4893 37.6797C16.2971 39.4295 12.2585 38.3009 10.4775 35.1562C8.96937 32.4858 9.56419 29.0857 11.8916 27.0664C11.9109 27.0489 11.9308 27.0312 11.9453 27.0137C14.5697 24.7175 15.8652 22.5198 15.9023 20.2969C15.933 18.4958 15.1586 16.7249 13.4648 14.7471C13.4503 14.6374 13.402 14.531 13.3232 14.4482L13.1084 14.2246C12.9408 14.0575 12.7966 13.9146 12.6982 13.7412V13.7393C12.3556 13.1324 12.1873 12.4752 12.1758 11.8242H6.92188C6.77742 12.855 5.88325 13.6494 4.7998 13.6494C3.61591 13.6492 2.65625 12.7005 2.65625 11.5312C2.6564 10.3621 3.616 9.4143 4.7998 9.41406C5.88991 9.41406 6.78878 10.2178 6.9248 11.2578H12.2061C12.2371 11.0052 12.2909 10.7559 12.3682 10.5137C12.8294 8.66675 14.5168 7.29702 16.5293 7.29688C18.0693 7.29688 19.4188 8.0996 20.1748 9.30371L27.3164 7.03418C27.1167 6.71247 27 6.3347 27 5.92969C27.0002 4.76052 27.9598 3.81274 29.1436 3.8125ZM26.1279 13.1406C27.0094 13.1408 27.7236 13.8472 27.7236 14.7178C27.7234 15.5882 27.0092 16.2937 26.1279 16.2939C25.2465 16.2939 24.5315 15.5883 24.5312 14.7178C24.5312 13.8471 25.2463 13.1406 26.1279 13.1406ZM15.3701 0C16.2514 0.000217665 16.9656 0.705777 16.9658 1.57617C16.9658 2.44674 16.2515 3.1531 15.3701 3.15332C14.4885 3.15332 13.7734 2.44687 13.7734 1.57617C13.7736 0.705642 14.4886 0 15.3701 0Z" fill="url(#paint0_linear_6246_2684)"/>
<path d="M25.6836 14.1797C26.0438 14.1797 26.3359 14.4684 26.3359 14.8242C26.3358 15.1798 26.0437 15.4677 25.6836 15.4678C25.3235 15.4678 25.0314 15.1799 25.0312 14.8242C25.0312 14.4684 25.3233 14.1797 25.6836 14.1797ZM15.5195 8.25C16.6002 8.25009 17.4765 9.11531 17.4766 10.1826C17.4766 11.2499 16.6002 12.1151 15.5195 12.1152C14.4388 12.1152 13.5625 11.25 13.5625 10.1826C13.5625 9.11526 14.4388 8.25 15.5195 8.25ZM3.9082 10.3203C4.34029 10.3206 4.69043 10.667 4.69043 11.0938C4.69022 11.5204 4.34017 11.866 3.9082 11.8662C3.47603 11.8662 3.12521 11.5205 3.125 11.0938C3.125 10.6668 3.4759 10.3203 3.9082 10.3203ZM29.6006 4.64844C30.1049 4.64844 30.5137 5.05267 30.5137 5.55078C30.5134 6.04869 30.1048 6.45215 29.6006 6.45215C29.0964 6.45209 28.6877 6.04865 28.6875 5.55078C28.6875 5.05271 29.0963 4.6485 29.6006 4.64844ZM15.2539 0.523438C15.6141 0.523467 15.9062 0.812196 15.9062 1.16797C15.9061 1.5236 15.614 1.81149 15.2539 1.81152C14.8938 1.81152 14.6017 1.52361 14.6016 1.16797C14.6016 0.812178 14.8937 0.523438 15.2539 0.523438Z" fill="white" fill-opacity="0.6"/>
<path d="M29.1241 23.0255L28.2774 21.9194L27.0794 20.6813C25.434 19.1401 23.5375 18.0128 21.5209 17.2969C21.4968 18.1591 21.2684 18.9713 20.8825 19.6885C22.3796 20.2555 23.7993 21.1046 25.0627 22.2556C30.2193 26.9506 31.1796 35.0261 26.6534 40.4674C23.7686 43.9349 20.8571 40.975 17.569 40.8787C13.8281 40.7693 8.41513 44.0509 5.43285 40.5702C2.03388 36.603 1.5838 30.4432 4.03053 25.9182C5.64253 22.9372 8.23216 20.8316 11.173 19.7241C10.7804 19.0056 10.5453 18.1908 10.5173 17.3246C8.69827 17.9746 6.97274 18.9542 5.43686 20.2621C5.06558 20.5785 4.73436 20.949 4.36709 21.2707L3.18246 22.6867C-0.955072 28.124 -1.08462 35.858 2.94873 41.385L3.86759 42.5637L4.96007 43.6923L6.10998 44.6521C11.762 49.0347 19.973 49.1322 25.7025 44.813L26.7135 44.0074L26.8978 43.8334C27.1649 43.426 27.6123 43.1267 27.9502 42.7707C32.9305 37.5219 33.4126 28.8083 29.1255 23.0255H29.1241Z" fill="url(#paint1_linear_6246_2684)"/>
<defs>
<linearGradient id="paint0_linear_6246_2684" x1="16.9722" y1="0" x2="16.9722" y2="38.5036" gradientUnits="userSpaceOnUse">
<stop stop-color="#8DBAFE"/>
<stop offset="0.305408" stop-color="#B5C9FE"/>
<stop offset="0.714329" stop-color="#D674EB"/>
<stop offset="1" stop-color="#7D40A7"/>
</linearGradient>
<linearGradient id="paint1_linear_6246_2684" x1="16.0204" y1="17.2969" x2="16.0204" y2="47.9964" gradientUnits="userSpaceOnUse">
<stop stop-color="#B186F9"/>
<stop offset="0.343992" stop-color="#D674EB"/>
<stop offset="1" stop-color="#7D40A7"/>
</linearGradient>
</defs>
</svg>
